<svg width="161" height="30" viewBox="0 0 161 30" fill="none" xmlns="http://www.w3.org/2000/svg">
<path d="M24.1924 1.66895H29.4805V1.94727C28.6764 1.97201 28.1198 2.14518 27.8105 2.4668C27.5013 2.77604 27.3467 3.43783 27.3467 4.45215V29.334L5.54492 6.12207V26.3467C5.54492 26.9899 5.5944 27.4661 5.69336 27.7754C5.79232 28.0846 5.93457 28.2949 6.12012 28.4062C6.30566 28.5176 6.76953 28.6289 7.51172 28.7402V29H2.26074V28.7402C3.20085 28.7402 3.78223 28.5732 4.00488 28.2393C4.23991 27.9053 4.35742 27.1074 4.35742 25.8457V7.34668C4.35742 5.72624 4.12858 4.40267 3.6709 3.37598C3.22559 2.34928 2.18652 1.87305 0.553711 1.94727V1.66895H5.69336L26.1777 23.4893V4.19238C26.1777 3.15332 25.9922 2.52246 25.6211 2.2998C25.25 2.06478 24.7738 1.94727 24.1924 1.94727V1.66895ZM49.4021 1.66895H53.5027V1.94727C52.9832 1.98438 52.5564 2.10807 52.2225 2.31836C51.8885 2.52865 51.505 2.96159 51.0721 3.61719L44.3924 13.7295V26.2725C44.3924 27.2868 44.5223 27.9548 44.782 28.2764C45.0418 28.5856 45.6046 28.7402 46.4705 28.7402V29H39.1785V28.7402C40.5763 28.8268 41.2752 28.2764 41.2752 27.0889L41.2381 26.3096V14.75L34.5398 3.6543C33.8348 2.47917 33.0493 1.91016 32.1834 1.94727V1.66895H38.6404V1.94727C38.0343 1.94727 37.7313 2.17611 37.7313 2.63379C37.7313 2.86882 37.8859 3.23372 38.1951 3.72852L43.7059 12.8203L49.7361 3.6543C49.8475 3.55534 49.9712 3.37598 50.1072 3.11621C50.2433 2.84408 50.3113 2.65853 50.3113 2.55957C50.3113 2.15137 50.0454 1.94727 49.5135 1.94727H49.4021V1.66895ZM77.9332 0.722656L76.6344 4.02539H76.3746C76.4241 3.82747 76.4488 3.56152 76.4488 3.22754C76.4488 2.94303 76.3437 2.76367 76.1334 2.68945C75.9355 2.60286 75.6139 2.55957 75.1686 2.55957H68.025V25.957C68.025 26.9219 68.0992 27.5837 68.2477 27.9424C68.4085 28.2887 68.6188 28.5114 68.8785 28.6104C69.1507 28.6969 69.5836 28.7402 70.1773 28.7402V29H62.774V28.7402C63.7018 28.6784 64.2831 28.499 64.5182 28.2021C64.7532 27.9053 64.8707 27.2868 64.8707 26.3467V2.55957H58.024C57.3313 2.55957 56.8798 2.60286 56.6695 2.68945C56.4592 2.76367 56.3541 2.96159 56.3541 3.2832C56.3541 3.44401 56.4036 3.69141 56.5025 4.02539H56.2428L54.9439 0.722656H55.2037C55.4264 1.16797 55.6428 1.4401 55.8531 1.53906C56.0758 1.62565 56.5458 1.66895 57.2633 1.66895H75.4283C76.1458 1.66895 76.6591 1.62565 76.9684 1.53906C77.29 1.4401 77.525 1.16797 77.6734 0.722656H77.9332ZM106.056 29H100.898V24.7881C98.2631 27.7197 95.1212 29.1855 91.4721 29.1855C88.7631 29.1855 86.6107 28.4248 85.015 26.9033C83.4317 25.3818 82.64 23.279 82.64 20.5947V4.22949C82.64 3.23991 82.5225 2.61523 82.2875 2.35547C82.0525 2.08333 81.502 1.94727 80.6361 1.94727V1.66895H87.891V1.94727C87.1241 1.94727 86.5798 2.07096 86.2582 2.31836C85.949 2.55339 85.7943 3.1224 85.7943 4.02539V19.0361C85.7943 22.1781 86.5303 24.4232 88.0023 25.7715C89.4743 27.1074 91.1505 27.7754 93.0307 27.7754C95.987 27.7754 98.6094 26.4456 100.898 23.7861V5.28711C100.898 3.66667 100.756 2.70801 100.471 2.41113C100.187 2.10189 99.7413 1.94727 99.1352 1.94727H98.8754V1.66895H106.056V1.94727C105.165 1.99674 104.603 2.14518 104.368 2.39258C104.145 2.63997 104.034 3.11003 104.034 3.80273V26.0684C104.034 26.9466 104.077 27.5218 104.163 27.7939C104.25 28.0661 104.423 28.2949 104.683 28.4805C104.955 28.6536 105.413 28.7402 106.056 28.7402V29ZM110.299 1.94727V1.66895H118.055C120.022 1.66895 121.444 1.71224 122.322 1.79883C123.201 1.88542 124.098 2.17611 125.013 2.6709C125.941 3.15332 126.64 3.8151 127.11 4.65625C127.58 5.48503 127.815 6.50553 127.815 7.71777C127.815 9.10319 127.394 10.4268 126.553 11.6885C125.724 12.9378 124.549 13.9954 123.028 14.8613L124.957 17.8301C125.378 18.5723 126.491 20.1989 128.297 22.71C130.115 25.221 131.519 26.7549 132.509 27.3115C133.499 27.8558 134.457 28.1279 135.385 28.1279C136.3 28.1279 137.352 27.7754 138.539 27.0703L138.651 27.4414C137.166 28.6536 135.237 29.2598 132.862 29.2598C131.278 29.2598 129.918 28.7959 128.779 27.8682C127.641 26.9281 125.662 24.3551 122.842 20.1494C122.817 20.1247 122.805 20.0999 122.805 20.0752L120.059 15.8447L117.628 15.9189H115.42V26.3838C115.42 27.2249 115.531 27.8311 115.754 28.2021C115.977 28.5609 116.515 28.7402 117.368 28.7402V29H110.299V28.7402C111.177 28.7031 111.722 28.5176 111.932 28.1836C112.154 27.8496 112.266 27.1693 112.266 26.1426V4.41504C112.266 3.70996 112.173 3.12858 111.988 2.6709C111.802 2.20085 111.239 1.95964 110.299 1.94727ZM115.42 2.39258V15.2139H118.278C120.529 15.2139 122.199 14.682 123.287 13.6182C124.376 12.5544 124.92 11.1566 124.92 9.4248C124.92 7.74251 124.382 6.15299 123.306 4.65625C122.242 3.14714 120.362 2.39258 117.665 2.39258H115.42ZM141.595 1.98438V1.66895H158.776V5.43555H158.498C158.127 4.03776 157.812 3.21517 157.552 2.96777C157.304 2.72038 156.686 2.59668 155.696 2.59668H146.679V14.8613H155.047C155.876 14.8613 156.401 14.7871 156.624 14.6387C156.847 14.4779 156.964 14.249 156.977 13.9521H157.255V16.5312H156.977C156.915 16.1725 156.766 15.9313 156.531 15.8076C156.309 15.6839 155.888 15.6221 155.27 15.6221H146.679V24.0645C146.679 25.3385 146.796 26.2601 147.031 26.8291C147.266 27.3857 147.637 27.7383 148.145 27.8867C148.664 28.0228 149.443 28.0908 150.482 28.0908H155.307C156.84 28.0908 157.818 28.0413 158.238 27.9424C158.671 27.8311 159.036 27.6208 159.333 27.3115C159.63 26.9899 159.859 26.2972 160.02 25.2334H160.279V29H141.595V28.7402C142.226 28.7031 142.702 28.5856 143.023 28.3877C143.357 28.1774 143.524 27.6455 143.524 26.792V4.71191C143.524 3.70996 143.438 3.00488 143.265 2.59668C143.091 2.18848 142.535 1.98438 141.595 1.98438Z" fill="white"/>
</svg>
