<svg xmlns="http://www.w3.org/2000/svg" width="551" height="99" viewBox="0 0 551 99" fill="none"><path d="M81.5398 3.24546H99.7807V4.20001C97.0072 4.28485 95.0871 4.8788 94.0204 5.98183C92.9537 7.04243 92.4203 9.31213 92.4203 12.7909V98.1274L17.2168 18.5182V87.882C17.2168 90.088 17.3875 91.7213 17.7288 92.782C18.0702 93.8426 18.5609 94.5638 19.2009 94.9456C19.8409 95.3274 21.441 95.7092 24.0011 96.091V96.982H5.88828V96.091C9.13109 96.091 11.1365 95.5183 11.9046 94.3729C12.7153 93.2274 13.1206 90.491 13.1206 86.1638V22.7182C13.1206 17.1606 12.3312 12.6212 10.7525 9.10001C9.21643 5.5788 5.63226 3.94546 0 4.20001V3.24546H17.7288L88.3881 78.0819V11.9C88.3881 8.33638 87.7481 6.17274 86.468 5.4091C85.188 4.60304 83.5452 4.20001 81.5398 4.20001V3.24546Z" fill="#2F2B28"></path><path d="M168.499 3.24546H182.644V4.20001C180.852 4.32728 179.38 4.75152 178.227 5.47274C177.075 6.19395 175.753 7.6788 174.259 9.92729L151.218 44.6092V87.6274C151.218 91.1062 151.666 93.3971 152.562 94.5001C153.458 95.5607 155.4 96.091 158.387 96.091V96.982H133.233V96.091C138.055 96.388 140.466 94.5001 140.466 90.4274L140.338 87.7547V48.1092L117.233 10.0546C114.8 6.02425 112.091 4.07273 109.104 4.20001V3.24546H131.377V4.20001C129.286 4.20001 128.241 4.98486 128.241 6.55455C128.241 7.36062 128.774 8.61213 129.841 10.3091L148.85 41.491L169.651 10.0546C170.035 9.71517 170.462 9.10001 170.931 8.2091C171.4 7.27577 171.635 6.6394 171.635 6.30001C171.635 4.90001 170.718 4.20001 168.883 4.20001H168.499V3.24546Z" fill="#2F2B28"></path><path d="M266.915 0L262.435 11.3273H261.538C261.709 10.6485 261.794 9.73638 261.794 8.59092C261.794 7.61516 261.432 7.00001 260.706 6.74546C260.024 6.44849 258.914 6.30001 257.378 6.30001H232.737V86.5456C232.737 89.8547 232.993 92.1244 233.505 93.3547C234.06 94.5426 234.785 95.3062 235.681 95.6456C236.62 95.9426 238.113 96.091 240.161 96.091V96.982H214.624V96.091C217.824 95.8789 219.83 95.2638 220.641 94.2456C221.451 93.2274 221.857 91.1062 221.857 87.882V6.30001H198.24C195.85 6.30001 194.293 6.44849 193.567 6.74546C192.842 7.00001 192.479 7.6788 192.479 8.78183C192.479 9.33335 192.65 10.1818 192.991 11.3273H192.095L187.615 0H188.511C189.279 1.52727 190.026 2.46061 190.751 2.8C191.519 3.09697 193.141 3.24546 195.615 3.24546H258.274C260.749 3.24546 262.52 3.09697 263.587 2.8C264.696 2.46061 265.507 1.52727 266.019 0H266.915Z" fill="#2F2B28"></path><path d="M363.922 96.982H346.13V82.5365C337.041 92.591 326.203 97.6183 313.616 97.6183C304.272 97.6183 296.847 95.0092 291.343 89.791C285.881 84.5729 283.151 77.3607 283.151 68.1546V12.0273C283.151 8.63335 282.745 6.49092 281.935 5.60001C281.124 4.66667 279.225 4.20001 276.238 4.20001V3.24546H301.263V4.20001C298.618 4.20001 296.741 4.62425 295.631 5.47274C294.564 6.2788 294.031 8.23032 294.031 11.3273V62.8092C294.031 73.585 296.57 81.285 301.647 85.9092C306.725 90.491 312.507 92.782 318.992 92.782C329.19 92.782 338.236 88.2213 346.13 79.1001V15.6546C346.13 10.097 345.639 6.8091 344.657 5.79092C343.676 4.73031 342.14 4.20001 340.049 4.20001H339.153V3.24546H363.922V4.20001C360.85 4.3697 358.909 4.8788 358.098 5.72728C357.33 6.57577 356.946 8.18789 356.946 10.5637V86.9274C356.946 89.9395 357.095 91.9123 357.394 92.8456C357.693 93.7789 358.29 94.5638 359.186 95.2001C360.125 95.7941 361.704 96.091 363.922 96.091V96.982Z" fill="#2F2B28"></path><path d="M378.558 4.20001V3.24546H405.311C412.096 3.24546 417.003 3.39394 420.032 3.69091C423.062 3.98788 426.155 4.98486 429.313 6.68183C432.513 8.33638 434.923 10.6061 436.545 13.4909C438.166 16.3334 438.977 19.8334 438.977 23.9909C438.977 28.7425 437.526 33.2819 434.625 37.6091C431.766 41.894 427.712 45.5213 422.464 48.491L429.121 58.6728C430.571 61.2183 434.411 66.7971 440.641 75.4092C446.913 84.0213 451.756 89.282 455.17 91.191C458.583 93.0577 461.89 93.991 465.09 93.991C468.248 93.991 471.875 92.782 475.971 90.3638L476.355 91.6365C471.234 95.7941 464.578 97.8729 456.386 97.8729C450.924 97.8729 446.231 96.282 442.305 93.1001C438.38 89.8759 431.553 81.0516 421.824 66.6274C421.739 66.5425 421.696 66.4577 421.696 66.3728L412.224 51.8637L403.839 52.1183H396.223V88.0092C396.223 90.8941 396.607 92.9729 397.375 94.2456C398.143 95.4759 399.999 96.091 402.943 96.091V96.982H378.558V96.091C381.588 95.9638 383.465 95.3274 384.19 94.182C384.958 93.0365 385.342 90.7032 385.342 87.1819V12.6637C385.342 10.2455 385.022 8.25153 384.382 6.68183C383.742 5.0697 381.801 4.24243 378.558 4.20001ZM396.223 5.72728V49.7001H406.079C413.845 49.7001 419.605 47.8758 423.36 44.2273C427.115 40.5788 428.993 35.7849 428.993 29.8455C428.993 24.0758 427.136 18.6243 423.424 13.4909C419.755 8.31516 413.269 5.72728 403.967 5.72728H396.223Z" fill="#2F2B28"></path><path d="M486.51 4.32728V3.24546H545.777V16.1637H544.817C543.537 11.3697 542.449 8.5485 541.553 7.70001C540.7 6.85153 538.566 6.42728 535.153 6.42728H504.047V48.491H532.912C535.771 48.491 537.585 48.2364 538.353 47.7273C539.121 47.1758 539.526 46.391 539.569 45.3728H540.529V54.2183H539.569C539.355 52.988 538.843 52.1607 538.033 51.7364C537.265 51.3122 535.814 51.1001 533.68 51.1001H504.047V80.0547C504.047 84.4244 504.452 87.585 505.263 89.5365C506.074 91.4456 507.354 92.6547 509.103 93.1638C510.895 93.6304 513.584 93.8638 517.168 93.8638H533.809C539.099 93.8638 542.47 93.6941 543.921 93.3547C545.414 92.9729 546.673 92.2516 547.697 91.191C548.721 90.088 549.511 87.7122 550.065 84.0638H550.961V96.982H486.51V96.091C488.686 95.9638 490.329 95.5607 491.439 94.882C492.591 94.1607 493.167 92.3365 493.167 89.4092V13.6818C493.167 10.2455 492.868 7.82728 492.271 6.42728C491.673 5.02728 489.753 4.32728 486.51 4.32728Z" fill="#2F2B28"></path></svg>